<svg width="108" height="51" viewBox="0 0 108 51" fill="none" xmlns="http://www.w3.org/2000/svg">
<g clip-path="url(#clip0_720_12357)">
<path d="M50.2992 -0.37673V24.4778C48.9692 22.5029 47.2694 20.8014 45.2945 19.4731C42.3612 17.495 38.8264 16.342 35.023 16.342C31.2197 16.342 27.6849 17.495 24.7516 19.4731C22.7783 20.8014 21.0769 22.5029 19.7469 24.4778C17.7704 27.4111 16.6174 30.9459 16.6174 34.7508C16.6174 38.5558 17.7704 42.089 19.7469 45.0239C21.0431 46.9473 22.6915 48.6102 24.6004 49.9241H0V49.7697C7.1918 48.5346 12.6612 42.2787 12.6612 34.7508C12.6612 27.2229 7.19019 20.9671 0 19.7288V19.4731H19.7453V-0.37673H19.9174C21.0174 6.96141 27.3617 12.5868 35.0214 12.5868C42.6812 12.5868 49.0255 6.96141 50.1255 -0.37673H50.2976H50.2992Z" fill="#AB782B"/>
<path d="M30.6407 42.8059L34.8976 42.3926C35.1533 43.8206 35.6728 44.8708 36.4575 45.5398C37.2407 46.2104 38.2973 46.5449 39.6273 46.5449C41.0361 46.5449 42.0975 46.2474 42.8115 45.6507C43.5255 45.0541 43.8825 44.3578 43.8825 43.5601C43.8825 43.0487 43.7314 42.6113 43.4322 42.2526C43.1315 41.8924 42.6072 41.5804 41.8578 41.3135C41.3448 41.1366 40.1773 40.8214 38.3552 40.3679C36.0105 39.7873 34.3653 39.0717 33.4197 38.2241C32.0897 37.0325 31.4239 35.5787 31.4239 33.8644C31.4239 32.7611 31.7359 31.7287 32.3631 30.7686C32.9887 29.8085 33.8909 29.0768 35.0681 28.5734C36.2453 28.0717 37.6669 27.8192 39.3314 27.8192C42.0508 27.8192 44.098 28.4158 45.4714 29.6075C46.8464 30.7992 47.5669 32.3913 47.636 34.3806L43.2618 34.572C43.0752 33.4591 42.6732 32.6582 42.0572 32.1709C41.4413 31.6837 40.5182 31.4392 39.2863 31.4392C38.0545 31.4392 37.0204 31.6997 36.3016 32.2224C35.8384 32.5569 35.6068 33.0056 35.6068 33.5668C35.6068 34.0799 35.8239 34.5173 36.2565 34.8823C36.8081 35.3455 38.1478 35.8279 40.277 36.3313C42.4046 36.8331 43.979 37.3541 44.9986 37.8912C46.0182 38.4284 46.8159 39.1617 47.3932 40.0929C47.9689 41.024 48.2584 42.1738 48.2584 43.544C48.2584 44.7855 47.9126 45.9482 47.2243 47.0322C46.5344 48.1161 45.5599 48.9218 44.2974 49.4493C43.0366 49.9767 41.4654 50.2405 39.5823 50.2405C36.8435 50.2405 34.74 49.6069 33.2717 48.3412C31.8035 47.0756 30.927 45.231 30.6407 42.8059Z" fill="white"/>
<path d="M50.5761 28.19H59.2361C60.9505 28.19 62.229 28.2624 63.0717 28.4039C63.9144 28.5471 64.6686 28.8446 65.3328 29.2981C65.9986 29.7516 66.5518 30.3547 66.9956 31.1089C67.4395 31.8631 67.6614 32.7074 67.6614 33.6434C67.6614 34.6582 67.388 35.5893 66.8412 36.4368C66.2945 37.2843 65.5531 37.9195 64.6171 38.3441C65.9374 38.7285 66.9522 39.383 67.6614 40.3093C68.3706 41.2356 68.726 42.3244 68.726 43.5755C68.726 44.5613 68.4977 45.5182 68.0393 46.4494C67.581 47.3805 66.9554 48.1251 66.1626 48.6815C65.3698 49.2379 64.392 49.5805 63.2293 49.7091C62.5008 49.7879 60.7414 49.8378 57.9528 49.8571H50.5777V28.1916L50.5761 28.19ZM54.9503 31.7972V36.8067H57.8177C59.5224 36.8067 60.5806 36.7826 60.9955 36.7327C61.7449 36.6443 62.3335 36.3853 62.7613 35.9576C63.1907 35.5298 63.4046 34.9653 63.4046 34.2658C63.4046 33.5662 63.2196 33.0516 62.8497 32.6334C62.4799 32.2153 61.9315 31.9612 61.2013 31.8728C60.7671 31.8229 59.5208 31.7988 57.4623 31.7988H54.9503V31.7972ZM54.9503 40.4122V46.2049H58.9997C60.5758 46.2049 61.5761 46.1599 62.0006 46.0714C62.6503 45.9524 63.181 45.6646 63.5895 45.2062C63.998 44.7479 64.2022 44.1352 64.2022 43.3665C64.2022 42.7168 64.0446 42.1652 63.7294 41.7116C63.4142 41.2581 62.9591 40.9285 62.3625 40.721C61.7658 40.5136 60.4728 40.4106 58.4835 40.4106H54.9519L54.9503 40.4122Z" fill="white"/>
<path d="M85.1395 28.19H88.0069V40.7081C88.0069 42.8856 87.7609 44.6144 87.2688 45.8961C86.7767 47.1779 85.8873 48.2184 84.6008 49.0225C83.3142 49.8249 81.6273 50.227 79.5382 50.227C77.4492 50.227 75.8491 49.8764 74.5577 49.1784C73.2663 48.4789 72.3464 47.4673 71.7948 46.1406C71.2432 44.8154 70.9666 43.0046 70.9666 40.7097V28.1916H73.834V40.6953C73.834 42.5769 74.0093 43.9647 74.3583 44.8556C74.7072 45.7482 75.3087 46.4349 76.161 46.9173C77.0134 47.3998 78.0555 47.641 79.2874 47.641C81.3957 47.641 82.8977 47.1634 83.7951 46.2081C84.6909 45.2529 85.1395 43.4147 85.1395 40.6953V28.1916V28.19Z" fill="white"/>
<path d="M90.0873 49.8555V28.19H92.9547V38.9343L103.713 28.19H107.6L98.511 36.9691L107.999 49.8571H104.215L96.5007 38.8909L92.9531 42.3485V49.8555H90.0857H90.0873Z" fill="white"/>
</g>
<defs>
<clipPath id="clip0_720_12357">
<rect width="107.505" height="50.3851" fill="white" transform="scale(1.00461)"/>
</clipPath>
</defs>
</svg>
