<svg width="81" height="38" viewBox="0 0 81 38" fill="none" xmlns="http://www.w3.org/2000/svg">
<g clip-path="url(#clip0_0_168)">
<path d="M37.7241 0V18.6407C36.7266 17.1596 35.4517 15.8835 33.9706 14.8872C31.7706 13.4037 29.1196 12.5389 26.2671 12.5389C23.4146 12.5389 20.7635 13.4037 18.5635 14.8872C17.0836 15.8835 15.8075 17.1596 14.8101 18.6407C13.3277 20.8407 12.4629 23.4918 12.4629 26.3455C12.4629 29.1992 13.3277 31.849 14.8101 34.0502C15.7822 35.4928 17.0185 36.7399 18.4502 37.7253H0V37.6095C5.39381 36.6832 9.49585 31.9914 9.49585 26.3455C9.49585 20.6996 5.3926 16.0077 0 15.079V14.8872H14.8089V0H14.9379C15.7629 5.50357 20.5211 9.7226 26.2659 9.7226C32.0107 9.7226 36.7688 5.50357 37.5938 0H37.7229H37.7241Z" fill="#AB782B"/>
<path d="M22.9805 32.2399L26.1731 31.9299C26.3649 33.001 26.7544 33.7886 27.343 34.2903C27.9304 34.7933 28.7228 35.0442 29.7203 35.0442C30.7769 35.0442 31.5729 34.821 32.1085 34.3736C32.644 33.9261 32.9117 33.4038 32.9117 32.8056C32.9117 32.422 32.7984 32.094 32.574 31.825C32.3485 31.5548 31.9553 31.3208 31.3932 31.1206C31.0085 30.988 30.1328 30.7515 28.7663 30.4114C27.0077 29.976 25.7739 29.4393 25.0647 28.8037C24.0672 27.9099 23.5679 26.8196 23.5679 25.5338C23.5679 24.7064 23.8018 23.9321 24.2722 23.212C24.7414 22.492 25.4181 21.9432 26.3009 21.5657C27.1838 21.1894 28.25 21 29.4984 21C31.538 21 33.0734 21.4475 34.1034 22.3412C35.1346 23.235 35.675 24.429 35.7268 25.921L32.4462 26.0645C32.3063 25.2299 32.0047 24.6292 31.5428 24.2638C31.0808 23.8983 30.3885 23.715 29.4646 23.715C28.5407 23.715 27.7652 23.9104 27.226 24.3024C26.8787 24.5533 26.705 24.8898 26.705 25.3107C26.705 25.6955 26.8678 26.0235 27.1923 26.2973C27.606 26.6447 28.6107 27.0065 30.2076 27.384C31.8033 27.7604 32.9841 28.1511 33.7488 28.554C34.5135 28.9568 35.1117 29.5068 35.5447 30.2052C35.9765 30.9035 36.1936 31.7659 36.1936 32.7935C36.1936 33.7247 35.9343 34.5967 35.4181 35.4096C34.9006 36.2225 34.1697 36.8268 33.2229 37.2224C32.2773 37.618 31.0989 37.8158 29.6865 37.8158C27.6325 37.8158 26.0549 37.3406 24.9537 36.3914C23.8525 35.4422 23.1952 34.0588 22.9805 32.2399Z" fill="white"/>
<path d="M37.9336 21.2782H44.4286C45.7143 21.2782 46.6732 21.3325 47.3052 21.4386C47.9372 21.546 48.5029 21.7691 49.001 22.1092C49.5004 22.4493 49.9153 22.9016 50.2482 23.4673C50.5811 24.033 50.7475 24.6662 50.7475 25.3682C50.7475 26.1292 50.5425 26.8276 50.1324 27.4632C49.7223 28.0989 49.1663 28.5753 48.4643 28.8937C49.4545 29.182 50.2156 29.6729 50.7475 30.3676C51.2794 31.0623 51.546 31.8789 51.546 32.8172C51.546 33.5566 51.3747 34.2742 51.0309 34.9726C50.6872 35.6709 50.218 36.2294 49.6234 36.6467C49.0288 37.064 48.2954 37.3209 47.4234 37.4174C46.877 37.4765 45.5575 37.5139 43.4661 37.5284H37.9348V21.2794L37.9336 21.2782ZM41.2143 23.9835V27.7406H43.3648C44.6433 27.7406 45.4369 27.7225 45.7481 27.6852C46.3102 27.6188 46.7516 27.4246 47.0724 27.1038C47.3945 26.783 47.5549 26.3596 47.5549 25.835C47.5549 25.3103 47.4162 24.9243 47.1388 24.6107C46.8614 24.2971 46.4501 24.1066 45.9025 24.0402C45.5768 24.0028 44.6421 23.9848 43.0982 23.9848H41.2143V23.9835ZM41.2143 30.4448V34.7893H44.2513C45.4333 34.7893 46.1835 34.7555 46.5019 34.6891C46.9892 34.5999 47.3872 34.384 47.6936 34.0402C47.9999 33.6965 48.1531 33.237 48.1531 32.6604C48.1531 32.1732 48.0349 31.7595 47.7985 31.4193C47.5621 31.0792 47.2208 30.8319 46.7733 30.6764C46.3258 30.5208 45.3561 30.4436 43.8641 30.4436H41.2155L41.2143 30.4448Z" fill="white"/>
<path d="M63.8562 21.2782H66.0067V30.6667C66.0067 32.2998 65.8222 33.5964 65.4531 34.5577C65.084 35.519 64.417 36.2993 63.4521 36.9024C62.4872 37.5042 61.222 37.8058 59.6552 37.8058C58.0885 37.8058 56.8884 37.5428 55.9198 37.0194C54.9513 36.4947 54.2614 35.7361 53.8477 34.741C53.434 33.7472 53.2266 32.3891 53.2266 30.6679V21.2794H55.3771V30.6571C55.3771 32.0682 55.5086 33.1091 55.7703 33.7773C56.032 34.4467 56.4831 34.9617 57.1224 35.3236C57.7616 35.6854 58.5432 35.8663 59.4671 35.8663C61.0483 35.8663 62.1748 35.5081 62.8479 34.7917C63.5197 34.0752 63.8562 32.6966 63.8562 30.6571V21.2794V21.2782Z" fill="white"/>
<path d="M67.5676 37.5272V21.2782H69.7181V29.3363L77.7871 21.2782H80.7024L73.8853 27.8625L81.0015 37.5284H78.1635L72.3777 29.3038L69.7169 31.897V37.5272H67.5664H67.5676Z" fill="white"/>
</g>
<defs>
<clipPath id="clip0_0_168">
<rect width="81" height="37.9629" fill="white"/>
</clipPath>
</defs>
</svg>
