<svg width="39" height="39" viewBox="0 0 39 39" fill="none" xmlns="http://www.w3.org/2000/svg">
<g clip-path="url(#clip0_0_261)">
<path d="M29.6718 5.08661C34.8221 5.08661 38.9972 9.26176 38.9972 14.4121C38.9972 18.2162 37.0169 21.8969 34.0613 22.6071C32.9212 22.8811 32.0133 24.3441 32.2084 26.0143C32.4695 28.2499 34.4911 30.5085 38.4939 32.2883C39.3852 32.6846 39.012 34.0253 38.0441 33.9042C27.6122 32.5981 20.3811 25.7972 20.3464 16.1751C20.3463 9.55782 24.2559 5.08661 29.6718 5.08661Z" fill="#99A7D1"/>
<path d="M9.32533 5.08661C14.4756 5.08661 18.6508 9.26176 18.6508 14.4121C18.6508 18.2162 16.6705 21.8969 13.7149 22.6071C12.5748 22.8811 11.6668 24.3441 11.8619 26.0143C12.123 28.2499 14.1447 30.5085 18.1475 32.2883C19.0387 32.6846 18.6655 34.0253 17.6977 33.9042C7.26579 32.5981 0.0346907 25.7972 2.9947e-09 16.1751C-0.000124941 9.55782 3.90943 5.08661 9.32533 5.08661Z" fill="#99A7D1"/>
</g>
<defs>
<clipPath id="clip0_0_261">
<rect width="38.3355" height="38.3345" fill="white" transform="scale(1.01732)"/>
</clipPath>
</defs>
</svg>
