<svg width="39" height="39" viewBox="0 0 39 39" fill="none" xmlns="http://www.w3.org/2000/svg">
<g clip-path="url(#clip0_0_267)">
<path d="M9.32822 5.08661C4.17792 5.08661 0.00276893 9.26176 0.00276893 14.4121C0.00276893 18.2162 1.98307 21.8969 4.9387 22.6071C6.07878 22.8811 6.98674 24.3441 6.79164 26.0143C6.53052 28.2499 4.5089 30.5085 0.50609 32.2883C-0.385159 32.6846 -0.0119741 34.0253 0.955857 33.9042C11.3878 32.5981 18.6189 25.7972 18.6536 16.1751C18.6537 9.55782 14.7441 5.08661 9.32822 5.08661Z" fill="#99A7D1"/>
<path d="M29.6747 5.08661C24.5244 5.08661 20.3492 9.26176 20.3492 14.4121C20.3492 18.2162 22.3295 21.8969 25.2851 22.6071C26.4252 22.8811 27.3332 24.3441 27.1381 26.0143C26.877 28.2499 24.8553 30.5085 20.8525 32.2883C19.9613 32.6846 20.3345 34.0253 21.3023 33.9042C31.7342 32.5981 38.9653 25.7972 39 16.1751C39.0001 9.55782 35.0906 5.08661 29.6747 5.08661Z" fill="#99A7D1"/>
</g>
<defs>
<clipPath id="clip0_0_267">
<rect width="38.3355" height="38.3345" fill="white" transform="matrix(-1.01732 0 0 1.01732 39 0)"/>
</clipPath>
</defs>
</svg>
