<svg width="44" height="44" viewBox="0 0 44 44" fill="none" xmlns="http://www.w3.org/2000/svg">
<rect width="44" height="44" rx="8" fill="#E3A91F"/>
<g clip-path="url(#clip0_747_10728)">
<path d="M27.226 16H18.158C17.7314 16 17.3846 16.3469 17.3846 16.7734C17.3846 17.2 17.7314 17.5469 18.158 17.5469H25.3557L16.2268 26.6781C15.9244 26.9805 15.9244 27.4703 16.2268 27.7727C16.5291 28.075 17.0189 28.075 17.3213 27.7727L26.4502 18.6414V25.8391C26.4502 26.2656 26.7971 26.6125 27.2236 26.6125C27.6502 26.6125 27.9971 26.2656 27.9971 25.8391V16.7734C27.9994 16.3469 27.6525 16 27.226 16Z" fill="white"/>
</g>
<defs>
<clipPath id="clip0_747_10728">
<rect width="12" height="12" fill="white" transform="translate(16 16)"/>
</clipPath>
</defs>
</svg>
