<svg width="114" height="48" viewBox="0 0 114 48" fill="none" xmlns="http://www.w3.org/2000/svg">
<rect x="48" y="48" width="48" height="48" rx="4" transform="rotate(180 48 48)" fill="#F0F1F2"/>
<path d="M31.1403 23.0749H19.9053L23.3478 19.6324C23.7153 19.2649 23.7153 18.6724 23.3478 18.3049C22.9803 17.9374 22.3878 17.9374 22.0203 18.3049L16.9803 23.3449L16.3203 24.0049L16.9803 24.6649L22.0203 29.7049C22.2003 29.8849 22.4403 29.9824 22.6803 29.9824C22.9203 29.9824 23.1603 29.8924 23.3403 29.7049C23.7078 29.3374 23.7078 28.7449 23.3403 28.3774L19.8978 24.9349H31.1328C31.6503 24.9349 32.0703 24.5149 32.0703 23.9974C32.0703 23.4799 31.6503 23.0599 31.1328 23.0599L31.1403 23.0749Z" fill="#E3A91F"/>
<rect x="66" width="48" height="48" rx="4" fill="#E3A91F"/>
<path d="M82.8597 24.9251H94.0947L90.6522 28.3676C90.2847 28.7351 90.2847 29.3276 90.6522 29.6951C91.0197 30.0626 91.6122 30.0626 91.9797 29.6951L97.0197 24.6551L97.6797 23.9951L97.0197 23.3351L91.9797 18.2951C91.7997 18.1151 91.5597 18.0176 91.3197 18.0176C91.0797 18.0176 90.8397 18.1076 90.6597 18.2951C90.2922 18.6626 90.2922 19.2551 90.6597 19.6226L94.1022 23.0651H82.8672C82.3497 23.0651 81.9297 23.4851 81.9297 24.0026C81.9297 24.5201 82.3497 24.9401 82.8672 24.9401L82.8597 24.9251Z" fill="white"/>
</svg>
