<svg width="1923" height="131" viewBox="0 0 1923 131" fill="none" xmlns="http://www.w3.org/2000/svg">
<g clip-path="url(#clip0_1752_15836)">
<path d="M333.892 4.09995L333.893 114.089C328.007 105.35 320.485 97.8203 311.745 91.942C298.763 83.1885 283.12 78.086 266.289 78.0862C249.457 78.0864 233.814 83.1893 220.833 91.943C212.1 97.8215 204.571 105.351 198.685 114.091C189.939 127.072 184.836 142.714 184.836 159.552C184.836 176.391 189.939 192.026 198.686 205.014C204.423 213.525 211.718 220.884 220.165 226.698L111.297 226.7L111.297 226.016C143.124 220.55 167.329 192.866 167.328 159.553C167.328 126.239 143.116 98.5554 111.296 93.0758L111.296 91.9443L198.678 91.9433L198.677 4.10152L199.438 4.10151C204.307 36.5751 232.383 61.4691 266.281 61.4687C300.18 61.4683 328.256 36.5736 333.123 4.09996L333.885 4.09995L333.892 4.09995Z" fill="#AB782B"/>
<path d="M1487.44 4.09995L1487.44 114.089C1481.55 105.35 1474.03 97.8203 1465.29 91.942C1452.31 83.1885 1436.67 78.086 1419.83 78.0862C1403 78.0864 1387.36 83.1893 1374.38 91.943C1365.65 97.8215 1358.12 105.351 1352.23 114.091C1343.48 127.072 1338.38 142.714 1338.38 159.552C1338.38 176.391 1343.49 192.026 1352.23 205.014C1357.97 213.525 1365.26 220.884 1373.71 226.698L1264.84 226.7L1264.84 226.016C1296.67 220.55 1320.87 192.866 1320.87 159.553C1320.87 126.239 1296.66 98.5554 1264.84 93.0758L1264.84 91.9443L1352.22 91.9433L1352.22 4.10152L1352.98 4.10151C1357.85 36.5751 1385.93 61.4691 1419.83 61.4687C1453.73 61.4683 1481.8 36.5736 1486.67 4.09996L1487.43 4.09995L1487.44 4.09995Z" fill="#AB782B"/>
<path d="M926 6.07159L926.001 116.061C920.116 107.321 912.593 99.7919 903.853 93.9136C890.872 85.1602 875.229 80.0577 858.397 80.0579C841.566 80.0581 825.923 85.1609 812.941 93.9147C804.209 99.7932 796.679 107.323 790.794 116.062C782.047 129.043 776.944 144.686 776.945 161.524C776.945 178.362 782.048 193.998 790.795 206.985C796.531 215.497 803.826 222.856 812.274 228.67L703.406 228.671L703.406 227.988C735.233 222.522 759.437 194.838 759.437 161.524C759.436 128.211 735.224 100.527 703.404 95.0475L703.404 93.9159L790.786 93.9149L790.785 6.07315L791.547 6.07314C796.415 38.5467 824.492 63.4407 858.39 63.4403C892.288 63.4399 920.364 38.5453 925.232 6.0716L925.993 6.07159L926 6.07159Z" fill="#AB782B"/>
<path d="M2079.55 6.07159L2079.55 116.061C2073.66 107.321 2066.14 99.7919 2057.4 93.9136C2044.42 85.1602 2028.77 80.0577 2011.94 80.0579C1995.11 80.0581 1979.47 85.1609 1966.49 93.9147C1957.75 99.7932 1950.23 107.323 1944.34 116.062C1935.59 129.043 1930.49 144.686 1930.49 161.524C1930.49 178.362 1935.59 193.998 1944.34 206.985C1950.08 215.497 1957.37 222.856 1965.82 228.67L1856.95 228.671L1856.95 227.988C1888.78 222.522 1912.98 194.838 1912.98 161.524C1912.98 128.211 1888.77 100.527 1856.95 95.0475L1856.95 93.9159L1944.33 93.9149L1944.33 6.07315L1945.09 6.07314C1949.96 38.5467 1978.04 63.4407 2011.94 63.4403C2045.83 63.4399 2073.91 38.5453 2078.78 6.0716L2079.54 6.07159L2079.55 6.07159Z" fill="#AB782B"/>
<path d="M1425.11 -141.837L1425.11 -7.40585C1417.92 -18.0872 1408.72 -27.2898 1398.04 -34.4744C1382.17 -45.173 1363.05 -51.4095 1342.48 -51.4092C1321.91 -51.409 1302.79 -45.1721 1286.93 -34.4731C1276.25 -27.2883 1267.05 -18.0854 1259.86 -7.40394C1249.17 8.46174 1242.93 27.5805 1242.93 48.1605C1242.93 68.7405 1249.17 87.8504 1259.86 103.725C1266.87 114.128 1275.78 123.121 1286.11 130.228L1153.05 130.229L1153.05 129.394C1191.95 122.714 1221.53 88.8771 1221.53 48.1607C1221.53 7.44435 1191.94 -26.3914 1153.05 -33.0886L1153.05 -34.4716L1259.85 -34.4728L1259.85 -141.835L1260.78 -141.835C1266.73 -102.145 1301.04 -71.7191 1342.47 -71.7196C1383.9 -71.72 1418.22 -102.147 1424.17 -141.837L1425.1 -141.837L1425.11 -141.837Z" fill="#AB782B"/>
<path d="M619.806 -141.828L619.807 -7.39706C612.614 -18.0784 603.419 -27.281 592.737 -34.4656C576.871 -45.1643 557.752 -51.4007 537.18 -51.4004C516.608 -51.4002 497.489 -45.1633 481.623 -34.4643C470.95 -27.2795 461.747 -18.0767 454.553 -7.39515C443.863 8.47053 437.626 27.5893 437.627 48.1693C437.627 68.7493 443.864 87.8592 454.554 103.733C461.566 114.136 470.482 123.13 480.807 130.236L347.746 130.238L347.746 129.403C386.645 122.722 416.229 88.8859 416.228 48.1695C416.228 7.45314 386.635 -26.3826 347.744 -33.0798L347.744 -34.4628L454.544 -34.464L454.543 -141.826L455.474 -141.826C461.424 -102.136 495.74 -71.7103 537.171 -71.7108C578.602 -71.7112 612.917 -102.138 618.866 -141.828L619.797 -141.828L619.806 -141.828Z" fill="#AB782B"/>
<path d="M1773.35 -141.828L1773.35 -7.39706C1766.16 -18.0784 1756.97 -27.281 1746.28 -34.4656C1730.42 -45.1643 1711.3 -51.4007 1690.73 -51.4004C1670.15 -51.4002 1651.03 -45.1633 1635.17 -34.4643C1624.5 -27.2795 1615.29 -18.0767 1608.1 -7.39515C1597.41 8.47053 1591.17 27.5893 1591.17 48.1693C1591.17 68.7493 1597.41 87.8592 1608.1 103.733C1615.11 114.136 1624.03 123.13 1634.35 130.236L1501.29 130.238L1501.29 129.403C1540.19 122.722 1569.77 88.8859 1569.77 48.1695C1569.77 7.45314 1540.18 -26.3826 1501.29 -33.0798L1501.29 -34.4628L1608.09 -34.464L1608.09 -141.826L1609.02 -141.826C1614.97 -102.136 1649.29 -71.7103 1690.72 -71.7108C1732.15 -71.7112 1766.46 -102.138 1772.41 -141.828L1773.34 -141.828L1773.35 -141.828Z" fill="#AB782B"/>
<path d="M272.055 -141.824L272.057 -7.39315C264.863 -18.0745 255.669 -27.2771 244.987 -34.4617C229.121 -45.1603 210.001 -51.3968 189.429 -51.3965C168.857 -51.3963 149.738 -45.1594 133.872 -34.4604C123.199 -27.2756 113.996 -18.0727 106.803 -7.39124C96.1124 8.47444 89.8758 27.5932 89.876 48.1732C89.8762 68.7532 96.1133 87.8631 106.804 103.737C113.815 114.14 122.731 123.134 133.056 130.24L-0.00466789 130.242L-0.00467755 129.407C38.895 122.726 68.4782 88.8898 68.4777 48.1734C68.4772 7.45705 38.8845 -26.3787 -0.0065578 -33.0759L-0.0065738 -34.4589L106.794 -34.4601L106.792 -141.822L107.723 -141.822C113.673 -102.132 147.989 -71.7064 189.42 -71.7069C230.851 -71.7073 265.166 -102.134 271.116 -141.824L272.047 -141.824L272.055 -141.824Z" fill="#AB782B"/>
<path d="M1425.61 -141.824L1425.61 -7.39315C1418.42 -18.0745 1409.22 -27.2771 1398.54 -34.4617C1382.67 -45.1603 1363.55 -51.3968 1342.98 -51.3965C1322.41 -51.3963 1303.29 -45.1594 1287.43 -34.4604C1276.75 -27.2756 1267.55 -18.0727 1260.36 -7.39124C1249.67 8.47444 1243.43 27.5932 1243.43 48.1732C1243.43 68.7532 1249.67 87.8631 1260.36 103.737C1267.37 114.14 1276.28 123.134 1286.61 130.24L1153.55 130.242L1153.55 129.407C1192.45 122.726 1222.03 88.8898 1222.03 48.1734C1222.03 7.45705 1192.44 -26.3787 1153.55 -33.0759L1153.55 -34.4589L1260.35 -34.4601L1260.35 -141.822L1261.28 -141.822C1267.23 -102.132 1301.54 -71.7064 1342.97 -71.7069C1384.41 -71.7073 1418.72 -102.134 1424.67 -141.824L1425.6 -141.824L1425.61 -141.824Z" fill="#AB782B"/>
<path d="M842.403 -141.83L842.405 -7.39901C835.211 -18.0804 826.017 -27.283 815.335 -34.4676C799.469 -45.1662 780.349 -51.4026 759.777 -51.4024C739.205 -51.4021 720.086 -45.1653 704.22 -34.4663C693.547 -27.2814 684.344 -18.0786 677.151 -7.3971C666.46 8.46858 660.224 27.5873 660.224 48.1673C660.224 68.7473 666.461 87.8572 677.152 103.731C684.163 114.134 693.079 123.128 703.404 130.235L570.343 130.236L570.343 129.401C609.243 122.72 638.826 88.8839 638.826 48.1676C638.825 7.45119 609.233 -26.3845 570.342 -33.0817L570.341 -34.4647L677.142 -34.466L677.14 -141.828L678.071 -141.828C684.021 -102.138 718.337 -71.7122 759.768 -71.7127C801.199 -71.7132 835.515 -102.14 841.464 -141.83L842.395 -141.83L842.403 -141.83Z" fill="#AB782B"/>
<path d="M1995.95 -141.83L1995.95 -7.39901C1988.76 -18.0804 1979.56 -27.283 1968.88 -34.4676C1953.01 -45.1662 1933.9 -51.4026 1913.32 -51.4024C1892.75 -51.4021 1873.63 -45.1653 1857.77 -34.4663C1847.09 -27.2814 1837.89 -18.0786 1830.7 -7.3971C1820.01 8.46858 1813.77 27.5873 1813.77 48.1673C1813.77 68.7473 1820.01 87.8572 1830.7 103.731C1837.71 114.134 1846.63 123.128 1856.95 130.235L1723.89 130.236L1723.89 129.401C1762.79 122.72 1792.37 88.8839 1792.37 48.1676C1792.37 7.45119 1762.78 -26.3845 1723.89 -33.0817L1723.89 -34.4647L1830.69 -34.466L1830.69 -141.828L1831.62 -141.828C1837.57 -102.138 1871.88 -71.7122 1913.31 -71.7127C1954.75 -71.7132 1989.06 -102.14 1995.01 -141.83L1995.94 -141.83L1995.95 -141.83Z" fill="#AB782B"/>
<path d="M1209.44 -141.835L1209.44 -7.4039C1202.24 -18.0852 1193.05 -27.2879 1182.37 -34.4725C1166.5 -45.1711 1147.38 -51.4075 1126.81 -51.4073C1106.24 -51.407 1087.12 -45.1702 1071.25 -34.4712C1060.58 -27.2863 1051.38 -18.0835 1044.18 -7.40199C1033.49 8.46369 1027.26 27.5824 1027.26 48.1624C1027.26 68.7424 1033.49 87.8524 1044.19 103.726C1051.2 114.129 1060.11 123.123 1070.44 130.23L937.376 130.231L937.376 129.396C976.276 122.715 1005.86 88.8791 1005.86 48.1627C1005.86 7.44631 976.266 -26.3894 937.375 -33.0866L937.375 -34.4696L1044.17 -34.4709L1044.17 -141.833L1045.1 -141.833C1051.05 -102.143 1085.37 -71.7171 1126.8 -71.7176C1168.23 -71.7181 1202.55 -102.145 1208.5 -141.835L1209.43 -141.835L1209.44 -141.835Z" fill="#AB782B"/>
</g>
<defs>
<clipPath id="clip0_1752_15836">
<rect width="130.159" height="1922.09" fill="white" transform="translate(0 130.242) scale(1.00047) rotate(-90.0007)"/>
</clipPath>
</defs>
</svg>
