<svg width="24" height="24" viewBox="0 0 24 24" fill="none" xmlns="http://www.w3.org/2000/svg">
<path d="M23 2.99931C22.0424 3.67479 20.9821 4.19142 19.86 4.52931C19.2577 3.83682 18.4573 3.34601 17.567 3.12324C16.6767 2.90047 15.7395 2.95651 14.8821 3.28377C14.0247 3.61102 13.2884 4.19371 12.773 4.95303C12.2575 5.71235 11.9877 6.61165 12 7.52931V8.52931C10.2426 8.57488 8.50127 8.18513 6.93101 7.39476C5.36074 6.60439 4.01032 5.43795 3 3.99931C3 3.99931 -1 12.9993 8 16.9993C5.94053 18.3973 3.48716 19.0982 1 18.9993C10 23.9993 21 18.9993 21 7.49931C20.9991 7.22077 20.9723 6.94291 20.92 6.66931C21.9406 5.66281 22.6608 4.39203 23 2.99931Z" fill="#0E1B41"/>
</svg>
