<svg width="24" height="24" viewBox="0 0 24 24" fill="none" xmlns="http://www.w3.org/2000/svg">
<path d="M15.9961 8.00098C17.5874 8.00098 19.1135 8.63312 20.2387 9.75834C21.364 10.8836 21.9961 12.4097 21.9961 14.001V21.001H17.9961V14.001C17.9961 13.4705 17.7854 12.9618 17.4103 12.5868C17.0352 12.2117 16.5265 12.001 15.9961 12.001C15.4657 12.001 14.957 12.2117 14.5819 12.5868C14.2068 12.9618 13.9961 13.4705 13.9961 14.001V21.001H9.99609V14.001C9.99609 12.4097 10.6282 10.8836 11.7535 9.75834C12.8787 8.63312 14.4048 8.00098 15.9961 8.00098Z" fill="#0E1B41"/>
<path d="M5.99609 9.00098H1.99609V21.001H5.99609V9.00098Z" fill="#0E1B41"/>
<path d="M3.99609 6C5.10066 6 5.99609 5.10457 5.99609 4C5.99609 2.89543 5.10066 2 3.99609 2C2.89152 2 1.99609 2.89543 1.99609 4C1.99609 5.10457 2.89152 6 3.99609 6Z" fill="#0E1B41"/>
</svg>
