<svg width="199" height="199" viewBox="0 0 199 199" fill="none" xmlns="http://www.w3.org/2000/svg">
<path opacity="0.47" d="M0 199V100.671C5.2618 108.484 11.987 115.215 19.8001 120.47C31.4053 128.296 45.3901 132.858 60.4374 132.858C75.4847 132.858 89.4695 128.296 101.075 120.47C108.882 115.215 115.613 108.484 120.875 100.671C128.694 89.0658 133.256 75.0815 133.256 60.0283C133.256 44.9751 128.694 30.9971 120.875 19.3859C115.747 11.7766 109.225 5.198 101.673 0H199V0.610794C170.547 5.49704 148.908 30.2464 148.908 60.0283C148.908 89.8102 170.553 114.56 199 119.459V120.47H120.881V199H120.2C115.848 169.969 90.7484 147.714 60.4438 147.714C30.1392 147.714 5.03911 169.969 0.687149 199H0.00634766H0Z" fill="white" fill-opacity="0.16"/>
</svg>
