<svg width="165" height="165" viewBox="0 0 165 165" fill="none" xmlns="http://www.w3.org/2000/svg">
<path d="M165 0V81.5294C160.637 75.0513 155.061 69.4701 148.583 65.1127C138.96 58.6241 127.365 54.8417 114.889 54.8417C102.412 54.8417 90.8167 58.6241 81.1943 65.1127C74.7214 69.4701 69.1399 75.0513 64.7772 81.5294C58.2936 91.1515 54.5111 102.746 54.5111 115.228C54.5111 127.709 58.2936 139.299 64.7772 148.926C69.0292 155.235 74.4365 160.69 80.6984 165H0V164.494C23.5918 160.442 41.5336 139.921 41.5336 115.228C41.5336 90.5342 23.5865 70.0134 0 65.9515V65.1127H64.7719V0H65.3363C68.9447 24.0711 89.7564 42.524 114.883 42.524C140.01 42.524 160.822 24.0711 164.43 0H164.995H165Z" fill="white" fill-opacity="0.16"/>
</svg>
