<svg width="206" height="12" viewBox="0 0 206 12" fill="none" xmlns="http://www.w3.org/2000/svg">
<path d="M1.50077 5.91903C1.50077 6.2472 1.5568 6.52734 1.66885 6.75946C1.78091 6.99158 1.93699 7.18368 2.13709 7.33576C2.3372 7.47983 2.56531 7.58788 2.82144 7.65992C3.08558 7.72395 3.36973 7.75597 3.67388 7.75597C4.00205 7.75597 4.28219 7.71995 4.51431 7.64792C4.74643 7.56787 4.93453 7.46782 5.0786 7.34776C5.22267 7.2277 5.32673 7.09163 5.39076 6.93955C5.45479 6.77947 5.48681 6.61939 5.48681 6.45931C5.48681 6.13114 5.41077 5.89102 5.25869 5.73894C5.11462 5.57886 4.95454 5.4668 4.77845 5.40277C4.47429 5.29071 4.11811 5.18666 3.7099 5.09061C3.30969 4.98655 2.81344 4.85449 2.22114 4.6944C1.85295 4.59835 1.54479 4.47429 1.29666 4.32221C1.05654 4.16213 0.864443 3.98604 0.720369 3.79394C0.576295 3.60184 0.472242 3.39774 0.408209 3.18163C0.35218 2.96552 0.324166 2.74541 0.324166 2.52129C0.324166 2.08907 0.412211 1.71688 0.588301 1.40472C0.772396 1.08455 1.01252 0.82042 1.30867 0.612313C1.60482 0.404207 1.94099 0.252129 2.31719 0.156079C2.69338 0.0520264 3.07357 0 3.45777 0C3.906 0 4.32622 0.0600307 4.71842 0.180092C5.11862 0.292149 5.4668 0.464237 5.76295 0.696356C6.06711 0.928475 6.30723 1.21662 6.48332 1.5608C6.65941 1.89697 6.74746 2.28917 6.74746 2.7374H5.24669C5.20667 2.18512 5.01857 1.79692 4.6824 1.57281C4.34623 1.34069 3.91801 1.22463 3.39774 1.22463C3.22165 1.22463 3.04156 1.24464 2.85746 1.28466C2.67337 1.31667 2.50528 1.3767 2.35321 1.46475C2.20113 1.54479 2.07306 1.65685 1.96901 1.80092C1.87296 1.945 1.82493 2.12509 1.82493 2.3412C1.82493 2.64535 1.91698 2.88548 2.10108 3.06157C2.29317 3.22965 2.5413 3.35772 2.84546 3.44576C2.87747 3.45377 3.00154 3.48979 3.21765 3.55382C3.44176 3.60985 3.68989 3.67388 3.96203 3.74592C4.23417 3.81795 4.4983 3.88999 4.75443 3.96203C5.01857 4.02606 5.20667 4.07409 5.31872 4.1061C5.59887 4.19415 5.84299 4.31421 6.0511 4.46629C6.2592 4.61836 6.43129 4.79445 6.56736 4.99456C6.71144 5.18666 6.81549 5.39476 6.87952 5.61888C6.95156 5.84299 6.98758 6.06711 6.98758 6.29122C6.98758 6.77147 6.88753 7.18368 6.68742 7.52785C6.49533 7.86403 6.23919 8.14017 5.91903 8.35628C5.59887 8.57239 5.23468 8.72847 4.82647 8.82452C4.41826 8.92857 4.00205 8.9806 3.57783 8.9806C3.08958 8.9806 2.62935 8.92057 2.19712 8.80051C1.7649 8.68044 1.38871 8.49635 1.06855 8.24822C0.748383 8.0001 0.492252 7.68393 0.300154 7.29974C0.108055 6.90754 0.00800411 6.4473 0 5.91903H1.50077Z" fill="white"/>
<path d="M11.9514 1.22463C11.4951 1.22463 11.0989 1.31667 10.7628 1.50077C10.4346 1.68486 10.1665 1.93299 9.95835 2.24515C9.75024 2.5493 9.59416 2.89748 9.49011 3.28968C9.39406 3.68188 9.34604 4.08209 9.34604 4.4903C9.34604 4.89851 9.39406 5.29871 9.49011 5.69091C9.59416 6.08311 9.75024 6.43529 9.95835 6.74745C10.1665 7.05161 10.4346 7.29574 10.7628 7.47983C11.0989 7.66392 11.4951 7.75597 11.9514 7.75597C12.4076 7.75597 12.7998 7.66392 13.128 7.47983C13.4641 7.29574 13.7363 7.05161 13.9444 6.74745C14.1525 6.43529 14.3046 6.08311 14.4006 5.69091C14.5047 5.29871 14.5567 4.89851 14.5567 4.4903C14.5567 4.08209 14.5047 3.68188 14.4006 3.28968C14.3046 2.89748 14.1525 2.5493 13.9444 2.24515C13.7363 1.93299 13.4641 1.68486 13.128 1.50077C12.7998 1.31667 12.4076 1.22463 11.9514 1.22463ZM11.9514 0C12.5917 0 13.164 0.120061 13.6682 0.360184C14.1805 0.600307 14.6127 0.924473 14.9649 1.33268C15.3171 1.74089 15.5852 2.21713 15.7693 2.76141C15.9614 3.30569 16.0575 3.88199 16.0575 4.4903C16.0575 5.10661 15.9614 5.68691 15.7693 6.23119C15.5852 6.77547 15.3171 7.25171 14.9649 7.65992C14.6127 8.06813 14.1805 8.3923 13.6682 8.63242C13.164 8.86454 12.5917 8.9806 11.9514 8.9806C11.311 8.9806 10.7347 8.86454 10.2225 8.63242C9.71823 8.3923 9.29001 8.06813 8.93783 7.65992C8.58565 7.25171 8.31351 6.77547 8.12141 6.23119C7.93731 5.68691 7.84527 5.10661 7.84527 4.4903C7.84527 3.88199 7.93731 3.30569 8.12141 2.76141C8.31351 2.21713 8.58565 1.74089 8.93783 1.33268C9.29001 0.924473 9.71823 0.600307 10.2225 0.360184C10.7347 0.120061 11.311 0 11.9514 0Z" fill="white"/>
<path d="M17.3633 0.204104H18.9481L22.8621 6.51934H22.8862V0.204104H24.3149V8.77649H22.7301L18.8281 2.47327H18.7921V8.77649H17.3633V0.204104Z" fill="white"/>
<path d="M28.3811 0.204104H29.9779L33.2796 8.77649H31.6708L30.8664 6.50733H27.4446L26.6402 8.77649H25.0914L28.3811 0.204104ZM27.8529 5.36675H30.4702L29.1855 1.68086H29.1495L27.8529 5.36675Z" fill="white"/>
<path d="M34.096 0.204104H35.5967V7.47983H39.955V8.77649H34.096V0.204104Z" fill="white"/>
<path d="M40.9901 0.204104H42.4909V8.77649H40.9901V0.204104Z" fill="white"/>
<path d="M49.174 3.79394H51.6232C51.9834 3.79394 52.2836 3.69389 52.5237 3.49379C52.7638 3.28568 52.8839 2.98953 52.8839 2.60533C52.8839 2.17311 52.7758 1.86896 52.5597 1.69287C52.3436 1.51678 52.0315 1.42873 51.6232 1.42873H49.174V3.79394ZM47.6732 0.204104H51.8394C52.6077 0.204104 53.2241 0.380194 53.6883 0.732375C54.1525 1.08455 54.3847 1.61683 54.3847 2.32919C54.3847 2.76141 54.2766 3.1336 54.0605 3.44576C53.8524 3.74992 53.5522 3.98604 53.16 4.15413V4.17814C53.6883 4.2902 54.0885 4.54233 54.3606 4.93453C54.6328 5.31872 54.7689 5.80297 54.7689 6.38727C54.7689 6.72344 54.7088 7.0396 54.5888 7.33576C54.4687 7.6239 54.2806 7.87603 54.0245 8.09214C53.7683 8.30025 53.4402 8.46834 53.04 8.5964C52.6398 8.71646 52.1635 8.77649 51.6112 8.77649H47.6732V0.204104ZM49.174 7.55187H51.8273C52.2836 7.55187 52.6358 7.43581 52.8839 7.20369C53.14 6.96357 53.2681 6.62739 53.2681 6.19517C53.2681 5.77095 53.14 5.44679 52.8839 5.22267C52.6358 4.99056 52.2836 4.8745 51.8273 4.8745H49.174V7.55187Z" fill="white"/>
<path d="M58.4199 0.204104H60.0168L63.3184 8.77649H61.7096L60.9052 6.50733H57.4835L56.6791 8.77649H55.1303L58.4199 0.204104ZM57.8917 5.36675H60.509L59.2244 1.68086H59.1883L57.8917 5.36675Z" fill="white"/>
<path d="M64.0747 0.204104H65.6596L69.5736 6.51934H69.5976V0.204104H71.0263V8.77649H69.4415L65.5395 2.47327H65.5035V8.77649H64.0747V0.204104Z" fill="white"/>
<path d="M80.2792 8.77649H79.3187L79.0906 7.76798C78.6904 8.22421 78.2902 8.54037 77.89 8.71646C77.4898 8.89255 77.0295 8.9806 76.5093 8.9806C75.8689 8.9806 75.2926 8.86454 74.7804 8.63242C74.2761 8.3923 73.8479 8.06813 73.4957 7.65992C73.1435 7.25171 72.8714 6.77547 72.6793 6.23119C72.4952 5.68691 72.4032 5.10661 72.4032 4.4903C72.4032 3.88199 72.4952 3.30569 72.6793 2.76141C72.8714 2.21713 73.1435 1.74089 73.4957 1.33268C73.8479 0.924473 74.2761 0.600307 74.7804 0.360184C75.2926 0.120061 75.8689 0 76.5093 0C76.9735 0 77.4137 0.0640327 77.8299 0.192098C78.2542 0.312159 78.6303 0.496254 78.9585 0.744381C79.2867 0.984504 79.5588 1.28866 79.7749 1.65685C79.9911 2.02504 80.1271 2.44925 80.1831 2.9295H78.7184C78.6784 2.64936 78.5903 2.40523 78.4543 2.19712C78.3262 1.98101 78.1621 1.80092 77.962 1.65685C77.7619 1.51277 77.5378 1.40472 77.2897 1.33268C77.0415 1.26065 76.7814 1.22463 76.5093 1.22463C76.053 1.22463 75.6568 1.31667 75.3207 1.50077C74.9925 1.68486 74.7244 1.93299 74.5162 2.24515C74.3081 2.5493 74.1521 2.89748 74.048 3.28968C73.952 3.68188 73.9039 4.08209 73.9039 4.4903C73.9039 4.89851 73.952 5.29871 74.048 5.69091C74.1521 6.08311 74.3081 6.43529 74.5162 6.74745C74.7244 7.05161 74.9925 7.29574 75.3207 7.47983C75.6568 7.66392 76.053 7.75597 76.5093 7.75597C76.8935 7.76397 77.2336 7.71595 77.5298 7.6119C77.8259 7.49984 78.0741 7.34376 78.2742 7.14366C78.4823 6.93555 78.6384 6.68342 78.7424 6.38727C78.8465 6.09112 78.9025 5.76295 78.9105 5.40277H76.6293V4.26218H80.2792V8.77649Z" fill="white"/>
<path d="M81.9095 0.204104H83.4103V7.47983H87.7685V8.77649H81.9095V0.204104Z" fill="white"/>
<path d="M91.0968 0.204104H92.6936L95.9953 8.77649H94.3865L93.5821 6.50733H90.1603L89.3559 8.77649H87.8071L91.0968 0.204104ZM90.5686 5.36675H93.1859L91.9012 1.68086H91.8652L90.5686 5.36675Z" fill="white"/>
<path d="M96.8117 0.204104H100.365C101.022 0.204104 101.59 0.316161 102.07 0.540276C102.551 0.764391 102.943 1.07255 103.247 1.46475C103.551 1.84895 103.775 2.30118 103.919 2.82144C104.071 3.34171 104.147 3.898 104.147 4.4903C104.147 5.0826 104.071 5.63889 103.919 6.15915C103.775 6.67942 103.551 7.13565 103.247 7.52785C102.943 7.91205 102.551 8.21621 102.07 8.44032C101.59 8.66444 101.022 8.77649 100.365 8.77649H96.8117V0.204104ZM98.3124 7.55187H99.7892C100.373 7.55187 100.85 7.47583 101.218 7.32375C101.594 7.16367 101.886 6.94756 102.094 6.67542C102.31 6.39527 102.455 6.07111 102.527 5.70292C102.607 5.32673 102.647 4.92252 102.647 4.4903C102.647 4.05808 102.607 3.65787 102.527 3.28968C102.455 2.91349 102.31 2.58933 102.094 2.31719C101.886 2.03704 101.594 1.82093 101.218 1.66885C100.85 1.50877 100.373 1.42873 99.7892 1.42873H98.3124V7.55187Z" fill="white"/>
<path d="M105.476 0.204104H111.647V1.50077H106.977V3.74592H111.299V4.97054H106.977V7.47983H111.731V8.77649H105.476V0.204104Z" fill="white"/>
<path d="M114.023 5.91903C114.023 6.2472 114.079 6.52734 114.191 6.75946C114.303 6.99158 114.459 7.18368 114.66 7.33576C114.86 7.47983 115.088 7.58788 115.344 7.65992C115.608 7.72395 115.892 7.75597 116.196 7.75597C116.525 7.75597 116.805 7.71995 117.037 7.64792C117.269 7.56787 117.457 7.46782 117.601 7.34776C117.745 7.2277 117.849 7.09163 117.913 6.93955C117.977 6.77947 118.009 6.61939 118.009 6.45931C118.009 6.13114 117.933 5.89102 117.781 5.73894C117.637 5.57886 117.477 5.4668 117.301 5.40277C116.997 5.29071 116.641 5.18666 116.232 5.09061C115.832 4.98655 115.336 4.85449 114.744 4.6944C114.375 4.59835 114.067 4.47429 113.819 4.32221C113.579 4.16213 113.387 3.98604 113.243 3.79394C113.099 3.60184 112.995 3.39774 112.931 3.18163C112.875 2.96552 112.847 2.74541 112.847 2.52129C112.847 2.08907 112.935 1.71688 113.111 1.40472C113.295 1.08455 113.535 0.82042 113.831 0.612313C114.127 0.404207 114.463 0.252129 114.84 0.156079C115.216 0.0520264 115.596 0 115.98 0C116.428 0 116.849 0.0600307 117.241 0.180092C117.641 0.292149 117.989 0.464237 118.285 0.696356C118.59 0.928475 118.83 1.21662 119.006 1.5608C119.182 1.89697 119.27 2.28917 119.27 2.7374H117.769C117.729 2.18512 117.541 1.79692 117.205 1.57281C116.869 1.34069 116.44 1.22463 115.92 1.22463C115.744 1.22463 115.564 1.24464 115.38 1.28466C115.196 1.31667 115.028 1.3767 114.876 1.46475C114.724 1.54479 114.596 1.65685 114.491 1.80092C114.395 1.945 114.347 2.12509 114.347 2.3412C114.347 2.64535 114.439 2.88548 114.624 3.06157C114.816 3.22965 115.064 3.35772 115.368 3.44576C115.4 3.45377 115.524 3.48979 115.74 3.55382C115.964 3.60985 116.212 3.67388 116.484 3.74592C116.757 3.81795 117.021 3.88999 117.277 3.96203C117.541 4.02606 117.729 4.07409 117.841 4.1061C118.121 4.19415 118.365 4.31421 118.574 4.46629C118.782 4.61836 118.954 4.79445 119.09 4.99456C119.234 5.18666 119.338 5.39476 119.402 5.61888C119.474 5.84299 119.51 6.06711 119.51 6.29122C119.51 6.77147 119.41 7.18368 119.21 7.52785C119.018 7.86403 118.762 8.14017 118.441 8.35628C118.121 8.57239 117.757 8.72847 117.349 8.82452C116.941 8.92857 116.525 8.9806 116.1 8.9806C115.612 8.9806 115.152 8.92057 114.72 8.80051C114.287 8.68044 113.911 8.49635 113.591 8.24822C113.271 8.0001 113.015 7.68393 112.823 7.29974C112.631 6.90754 112.53 6.4473 112.522 5.91903H114.023Z" fill="white"/>
<path d="M120.788 0.204104H122.289V3.61385H126.191V0.204104H127.691V8.77649H126.191V4.91051H122.289V8.77649H120.788V0.204104Z" fill="white"/>
<path d="M134.235 11.0697C133.995 10.6855 133.767 10.2893 133.55 9.88106C133.342 9.47285 133.158 9.04463 132.998 8.5964C132.846 8.14017 132.726 7.65992 132.638 7.15566C132.55 6.65141 132.506 6.11113 132.506 5.53483C132.506 4.56634 132.654 3.61385 132.95 2.67737C133.254 1.74089 133.683 0.848434 134.235 0H135.351C134.871 0.864442 134.503 1.7529 134.247 2.66536C133.999 3.56983 133.875 4.52632 133.875 5.53483C133.875 6.54335 133.995 7.50384 134.235 8.41631C134.475 9.32878 134.847 10.2132 135.351 11.0697H134.235Z" fill="white"/>
<path d="M136.076 0.204104H137.576V5.19866C137.576 5.48681 137.588 5.77896 137.612 6.07511C137.644 6.37126 137.724 6.6394 137.853 6.87952C137.989 7.11164 138.189 7.30374 138.453 7.45582C138.725 7.6079 139.105 7.68393 139.593 7.68393C140.082 7.68393 140.458 7.6079 140.722 7.45582C140.994 7.30374 141.194 7.11164 141.322 6.87952C141.458 6.6394 141.538 6.37126 141.562 6.07511C141.594 5.77896 141.61 5.48681 141.61 5.19866V0.204104H143.111V5.69091C143.111 6.2432 143.027 6.72344 142.859 7.13165C142.691 7.53986 142.451 7.88404 142.139 8.16418C141.835 8.43632 141.466 8.64042 141.034 8.77649C140.602 8.91256 140.122 8.9806 139.593 8.9806C139.065 8.9806 138.585 8.91256 138.153 8.77649C137.72 8.64042 137.348 8.43632 137.036 8.16418C136.732 7.88404 136.496 7.53986 136.328 7.13165C136.16 6.72344 136.076 6.2432 136.076 5.69091V0.204104Z" fill="white"/>
<path d="M144.836 0.204104H146.337V4.1061L150.155 0.204104H152.004L148.582 3.62586L152.244 8.77649H150.371L147.562 4.6824L146.337 5.89502V8.77649H144.836V0.204104Z" fill="white"/>
<path d="M153.163 0C153.403 0.384197 153.628 0.784401 153.836 1.20061C154.044 1.60882 154.224 2.04104 154.376 2.49728C154.536 2.94551 154.66 3.42175 154.748 3.92601C154.844 4.43027 154.892 4.97054 154.892 5.54684C154.892 6.51534 154.74 7.46782 154.436 8.4043C154.14 9.34078 153.716 10.2292 153.163 11.0697H152.047C152.527 10.2132 152.891 9.33278 153.139 8.42831C153.395 7.51585 153.524 6.55536 153.524 5.54684C153.524 4.53832 153.403 3.57783 153.163 2.66536C152.923 1.7529 152.551 0.864442 152.047 0H153.163Z" fill="white"/>
<path d="M159.738 0.204104H161.239V7.47983H165.597V8.77649H159.738V0.204104Z" fill="white"/>
<path d="M166.633 0.204104H168.133V8.77649H166.633V0.204104Z" fill="white"/>
<path d="M169.95 0.204104H172.063L174.428 6.91554H174.452L176.758 0.204104H178.847V8.77649H177.418V2.16111H177.394L175.017 8.77649H173.78L171.403 2.16111H171.379V8.77649H169.95V0.204104Z" fill="white"/>
<path d="M180.644 0.204104H182.144V8.77649H180.644V0.204104Z" fill="white"/>
<path d="M183.169 0.204104H190.108V1.50077H187.383V8.77649H185.882V1.50077H183.169V0.204104Z" fill="white"/>
<path d="M191.102 0.204104H197.273V1.50077H192.603V3.74592H196.925V4.97054H192.603V7.47983H197.357V8.77649H191.102V0.204104Z" fill="white"/>
<path d="M198.665 0.204104H202.218C202.875 0.204104 203.443 0.316161 203.923 0.540276C204.404 0.764391 204.796 1.07255 205.1 1.46475C205.404 1.84895 205.628 2.30118 205.772 2.82144C205.924 3.34171 206 3.898 206 4.4903C206 5.0826 205.924 5.63889 205.772 6.15915C205.628 6.67942 205.404 7.13565 205.1 7.52785C204.796 7.91205 204.404 8.21621 203.923 8.44032C203.443 8.66444 202.875 8.77649 202.218 8.77649H198.665V0.204104ZM200.165 7.55187H201.642C202.226 7.55187 202.703 7.47583 203.071 7.32375C203.447 7.16367 203.739 6.94756 203.947 6.67542C204.163 6.39527 204.307 6.07111 204.38 5.70292C204.46 5.32673 204.5 4.92252 204.5 4.4903C204.5 4.05808 204.46 3.65787 204.38 3.28968C204.307 2.91349 204.163 2.58933 203.947 2.31719C203.739 2.03704 203.447 1.82093 203.071 1.66885C202.703 1.50877 202.226 1.42873 201.642 1.42873H200.165V7.55187Z" fill="white"/>
</svg>
