<svg width="24" height="24" viewBox="0 0 24 24" fill="none" xmlns="http://www.w3.org/2000/svg">
<path d="M16.1861 2H7.80609C4.16609 2 1.99609 4.17 1.99609 7.81V16.18C1.99609 19.83 4.16609 22 7.80609 22H16.1761C19.8161 22 21.9861 19.83 21.9861 16.19V7.81C21.9961 4.17 19.8261 2 16.1861 2ZM11.9961 15.88C9.85609 15.88 8.11609 14.14 8.11609 12C8.11609 9.86 9.85609 8.12 11.9961 8.12C14.1361 8.12 15.8761 9.86 15.8761 12C15.8761 14.14 14.1361 15.88 11.9961 15.88ZM17.9161 6.88C17.8661 7 17.7961 7.11 17.7061 7.21C17.6061 7.3 17.4961 7.37 17.3761 7.42C17.2561 7.47 17.1261 7.5 16.9961 7.5C16.7261 7.5 16.4761 7.4 16.2861 7.21C16.1961 7.11 16.1261 7 16.0761 6.88C16.0261 6.76 15.9961 6.63 15.9961 6.5C15.9961 6.37 16.0261 6.24 16.0761 6.12C16.1261 5.99 16.1961 5.89 16.2861 5.79C16.5161 5.56 16.8661 5.45 17.1861 5.52C17.2561 5.53 17.3161 5.55 17.3761 5.58C17.4361 5.6 17.4961 5.63 17.5561 5.67C17.6061 5.7 17.6561 5.75 17.7061 5.79C17.7961 5.89 17.8661 5.99 17.9161 6.12C17.9661 6.24 17.9961 6.37 17.9961 6.5C17.9961 6.63 17.9661 6.76 17.9161 6.88Z" fill="#0E1B41"/>
</svg>
